<svg width="131" height="40" viewBox="0 0 131 40" fill="none" xmlns="http://www.w3.org/2000/svg">
<path d="M130.863 15.9075V19.238H129.537C126.943 19.238 125.322 20.6233 125.322 23.4528V30.5264H121.726V15.9959H125.116L125.322 18.118C125.941 16.6738 127.326 15.7012 129.271 15.7012C129.772 15.7012 130.273 15.7601 130.863 15.9075Z" fill="#070159"/>
<path d="M103.903 23.2169C103.903 18.6779 107.175 15.5537 111.684 15.5537C116.194 15.5537 119.465 18.6779 119.465 23.2169C119.465 27.7558 116.194 30.88 111.684 30.88C107.175 30.88 103.903 27.7558 103.903 23.2169ZM107.499 23.2169C107.499 25.8695 109.208 27.6674 111.684 27.6674C114.16 27.6674 115.869 25.8695 115.869 23.2169C115.869 20.5642 114.16 18.7663 111.684 18.7663C109.208 18.7663 107.499 20.5642 107.499 23.2169Z" fill="#070159"/>
<path d="M100.427 30.5263H96.8308V18.9726H94.0308V15.9663H96.8308V11.4273H100.427V15.9663H103.256V18.9726H100.427V30.5263Z" fill="#070159"/>
<path d="M88.7546 15.9663H92.3504V30.5263H89.0199L88.7546 28.581C87.8704 29.9663 85.9841 30.9095 84.0388 30.9095C80.6788 30.9095 78.7041 28.64 78.7041 25.0737V15.9663H82.2999V23.8063C82.2999 26.5768 83.3904 27.6968 85.3946 27.6968C87.6641 27.6968 88.7546 26.3705 88.7546 23.6V15.9663Z" fill="#070159"/>
<path d="M62.4856 12.4589V8.98102H78.873V12.4589H72.5656V30.5263H68.793V12.4589H62.4856Z" fill="#070159"/>
<path d="M58.918 13.0484C57.6802 13.0484 56.7075 12.0758 56.7075 10.8674C56.7075 9.65898 57.6802 8.71582 58.918 8.71582C60.097 8.71582 61.0696 9.65898 61.0696 10.8674C61.0696 12.0758 60.097 13.0484 58.918 13.0484ZM57.1202 30.5263V15.9663H60.7159V30.5263H57.1202Z" fill="#070159"/>
<path d="M31.9322 39.9996C31.7661 39.9996 31.602 39.9714 31.4444 39.9161C28.873 39.0859 26.5514 37.752 24.5442 35.9505C22.9839 34.5496 21.6774 32.9195 20.655 31.0987C20.1119 31.4174 19.5352 31.6755 18.9339 31.8691C18.0768 32.1446 17.1861 32.2842 16.2857 32.2842C15.9176 32.2842 15.5454 32.2604 15.1801 32.2132C13.9245 32.0511 12.6984 31.6061 11.6332 30.9265C10.846 30.4238 10.1525 29.8047 9.56777 29.0826C9.26105 29.1197 8.9515 29.1387 8.64397 29.1387C7.90647 29.1387 7.17422 29.0322 6.46702 28.8216C5.30641 28.4751 4.24723 27.858 3.37435 27.0234L3.35899 27.0367L2.98276 26.6244C2.04643 25.589 1.41359 24.3155 1.15173 22.9416C0.944014 21.8529 0.979576 20.7178 1.25397 19.6416C0.573039 18.5263 0.152762 17.2532 0.0343567 15.9434C-0.104254 14.3993 0.178221 12.8471 0.851472 11.4543C1.52513 10.0594 2.56733 8.87145 3.86534 8.01912C4.92573 7.32128 6.14211 6.86385 7.39931 6.68757C8.36473 5.15111 9.59727 3.82965 11.0662 2.75708C12.7506 1.52638 14.6454 0.693 16.6987 0.280346C17.6262 0.09439 18.575 0 19.5194 0C20.6392 0 21.7594 0.131904 22.8489 0.392082C24.5523 0.798685 26.1416 1.49895 27.5791 2.47592C29.0044 1.74702 30.5933 1.34324 32.1977 1.30452C32.2841 1.3025 32.3718 1.30129 32.4583 1.30129C34.1083 1.30129 35.7401 1.68611 37.2155 2.41864L37.2228 2.4013L37.7768 2.71513C39.4729 3.68726 40.8691 5.10594 41.8147 6.81746C42.6153 8.26639 43.0687 9.89724 43.1334 11.5511C44.0968 12.2368 44.9009 13.096 45.5265 14.1089C46.2988 15.361 46.7489 16.7982 46.8294 18.2649C46.9086 19.7295 46.6172 21.2035 45.9868 22.5278C45.4703 23.6124 44.7219 24.5967 43.8127 25.3889C43.7751 26.6422 43.4744 27.8943 42.9378 29.0266C42.2871 30.3992 41.2942 31.5981 40.0674 32.4928C38.8389 33.3883 37.3933 33.9687 35.8864 34.1704C35.4819 34.2249 35.0701 34.2523 34.6619 34.2523C34.0853 34.2523 33.5102 34.1978 32.9449 34.0901C32.8657 34.5262 32.8253 34.9691 32.8253 35.4132C32.8253 36.3111 32.9861 37.1885 33.3029 38.021C33.5878 38.777 33.2047 39.6216 32.449 39.9056C32.2837 39.9681 32.11 40 31.933 40L31.9322 39.9996ZM21.1848 27.4284C21.7659 27.4284 22.2929 27.7712 22.5269 28.3025C23.4563 30.3996 24.7943 32.2411 26.5041 33.7755C27.5403 34.7057 28.6847 35.4939 29.916 36.1268C29.8995 35.8888 29.891 35.6508 29.891 35.4132C29.891 34.1894 30.1092 32.9845 30.54 31.8308C30.5461 31.8127 30.5541 31.7881 30.5659 31.7598C30.7833 31.2007 31.3313 30.8256 31.9326 30.8256C32.1108 30.8256 32.2862 30.8579 32.4539 30.9216C33.1651 31.1919 33.9107 31.329 34.6696 31.329C34.9452 31.329 35.2233 31.3105 35.496 31.2738C36.5197 31.1362 37.5016 30.7421 38.3361 30.133C39.171 29.5235 39.8459 28.7087 40.288 27.7769C40.7309 26.8435 40.9346 25.8056 40.8772 24.7758C40.8485 24.2566 41.0995 23.7605 41.5335 23.4753C42.3017 22.9033 42.9256 22.1433 43.3382 21.2765C43.7613 20.3883 43.9569 19.3992 43.904 18.4165C43.8503 17.4363 43.55 16.4767 43.0352 15.6417C42.5203 14.8079 41.7957 14.1085 40.9406 13.6192C40.4432 13.3344 40.1579 12.7866 40.2092 12.2187C40.2541 10.8278 39.9215 9.44748 39.247 8.22605C38.562 6.98648 37.5493 5.95827 36.3188 5.25357L36.1196 5.13942C34.9957 4.53839 33.7337 4.22214 32.4547 4.22214C32.392 4.22214 32.3294 4.22295 32.2664 4.22456C30.8641 4.25844 29.4954 4.67271 28.3077 5.4238C28.0632 5.5908 27.7771 5.67873 27.4797 5.67873C27.1531 5.67873 26.8319 5.5678 26.5748 5.36611C25.2651 4.33468 23.7832 3.61667 22.17 3.23145C21.3036 3.02452 20.4125 2.92004 19.5215 2.92004C18.769 2.92004 18.0129 2.99507 17.2742 3.14311C15.6472 3.46984 14.1411 4.1334 12.797 5.11481C11.4631 6.08937 10.3788 7.31361 9.57464 8.75326C9.53585 8.82708 9.49059 8.89727 9.43967 8.96302L9.43199 8.97875L9.38188 9.03321L9.36451 9.05418L9.35036 9.0683L9.34309 9.07677L9.2752 9.14454L9.26186 9.15503L9.24085 9.17358L9.23357 9.18125L9.20771 9.20182L9.20367 9.20585L9.15437 9.24337C8.91554 9.42085 8.63468 9.52008 8.34048 9.53218C7.31848 9.57656 6.32639 9.89684 5.47169 10.4579C4.61982 11.0186 3.93404 11.802 3.48871 12.7237C3.04378 13.645 2.85668 14.6696 2.94801 15.6873C3.03085 16.6078 3.34525 17.5029 3.85807 18.281C4.29774 18.6804 4.45333 19.306 4.24359 19.8699C3.94091 20.6779 3.86656 21.5524 4.0286 22.4003C4.18904 23.2429 4.57981 24.0267 5.15891 24.6665L5.26478 24.7834C5.82408 25.3607 6.52562 25.7858 7.30313 26.0178C7.74199 26.1485 8.19622 26.2146 8.65286 26.2146C8.90705 26.2146 9.16245 26.1936 9.4134 26.1525C9.51766 26.0847 9.6296 26.0311 9.74841 25.9915C11.4853 25.4062 13.0949 24.4075 14.4006 23.1046C15.7062 21.8013 16.7064 20.1946 17.294 18.4581C17.4932 17.8627 18.0509 17.4618 18.6813 17.4618C18.8393 17.4618 18.9961 17.4876 19.1469 17.538C19.9114 17.7933 20.3257 18.6227 20.0699 19.3871C19.3348 21.5597 18.0917 23.5608 16.4753 25.1751C15.3252 26.3223 14.0114 27.2646 12.5598 27.9838C12.7639 28.1593 12.9797 28.3198 13.206 28.4642C13.9112 28.9144 14.7214 29.2089 15.549 29.3158C15.7907 29.3468 16.0368 29.3626 16.2809 29.3626C16.8782 29.3626 17.469 29.2698 18.0368 29.0871C18.8147 28.8366 19.515 28.4332 20.1183 27.8882C20.2521 27.7454 20.4121 27.6329 20.5944 27.5526C20.7823 27.4703 20.9807 27.4284 21.1844 27.4284H21.1848ZM26.8545 30.277C26.5672 30.277 26.2879 30.1931 26.0471 30.0346C24.8384 29.2303 23.8261 28.2069 23.0356 26.9927C22.2452 25.7778 21.7211 24.4377 21.4774 23.0106C21.2349 21.5867 21.2858 20.1519 21.6285 18.7453C21.972 17.3355 22.5883 16.0358 23.46 14.8818C23.7352 14.5175 24.1724 14.3001 24.6299 14.3001C24.9507 14.3001 25.2562 14.4025 25.5124 14.5962C26.1566 15.081 26.2855 15.9999 25.799 16.6437C25.1661 17.4823 24.72 18.421 24.4735 19.4335C24.2257 20.4504 24.1898 21.4907 24.3664 22.5257C24.5426 23.558 24.9212 24.5257 25.491 25.4014C26.0608 26.2783 26.7923 27.0169 27.6651 27.597C28.3364 28.0411 28.5215 28.9499 28.0773 29.6219C27.8042 30.033 27.3475 30.2774 26.8545 30.2774V30.277ZM36.0476 29.73C35.7547 29.73 35.471 29.6433 35.2281 29.4787C34.0554 28.6861 33.2047 27.499 32.8325 26.136C32.6794 25.5757 32.6095 25.0053 32.6232 24.4329C32.2745 24.4583 31.9245 24.4712 31.5765 24.4712C29.9924 24.4712 28.4285 24.2094 26.9284 23.6935C26.1651 23.4313 25.7565 22.5975 26.0184 21.8344C26.2225 21.2426 26.7797 20.8453 27.4057 20.8453C27.5669 20.8453 27.727 20.8719 27.8805 20.9243C29.0779 21.3366 30.3238 21.5451 31.585 21.5451C32.4539 21.5451 33.3235 21.4451 34.1701 21.2474L34.1976 21.2414C34.2986 21.218 34.3985 21.1922 34.4825 21.1704C36.6655 20.5952 38.6089 19.3984 40.1009 17.7098C40.3789 17.396 40.7786 17.2165 41.1977 17.2165C41.5553 17.2165 41.8996 17.3468 42.1675 17.5836C42.4601 17.8421 42.6343 18.1987 42.6581 18.588C42.682 18.9772 42.5526 19.3528 42.2936 19.6448C40.5095 21.6637 38.2109 23.1252 35.6314 23.8851C35.5142 24.3728 35.5219 24.8802 35.6553 25.3679C35.8436 26.0585 36.2748 26.6595 36.8688 27.0609C37.5364 27.5131 37.7114 28.4227 37.2596 29.0891C36.9864 29.4904 36.5334 29.73 36.0472 29.73H36.0476ZM9.17659 23.8924C8.5191 23.8924 7.9388 23.4495 7.76584 22.8158C7.18149 20.6964 7.17422 18.4561 7.74482 16.3375C7.88101 15.8321 8.04993 15.3343 8.24996 14.8491C7.87373 14.935 7.49468 15.0068 7.11522 15.0645C7.04167 15.0754 6.96812 15.081 6.89538 15.081C6.17606 15.081 5.55332 14.5453 5.44664 13.8346C5.32661 13.0363 5.87944 12.2893 6.67877 12.1695C8.28391 11.9258 9.80701 11.3901 11.2065 10.5773L11.3083 10.5168C11.7496 10.2554 12.1796 9.9642 12.5865 9.65158C14.3088 8.3273 15.6751 6.57665 16.5375 4.59002C16.7687 4.05514 17.296 3.70864 17.8808 3.70864C18.0804 3.70864 18.2752 3.74898 18.4595 3.82804C19.1998 4.14751 19.5425 5.00832 19.2236 5.7473C18.162 8.19257 16.4858 10.3422 14.3755 11.9654C13.9193 12.3159 13.442 12.643 12.9559 12.9387C11.8211 14.0928 10.9991 15.528 10.5768 17.0943C10.1396 18.7175 10.1436 20.4298 10.5894 22.0461C10.8011 22.8259 10.34 23.6298 9.56212 23.8407C9.43684 23.875 9.30712 23.8924 9.1774 23.8924H9.17659ZM32.7359 19.2939C31.9799 19.2939 31.3539 18.7271 31.2799 17.9753C31.1559 16.732 30.6907 15.5457 29.9342 14.5453C29.1789 13.5478 28.1626 12.7769 26.9959 12.3167C26.1934 12.0004 25.3496 11.8399 24.4884 11.8399C24.0989 11.8399 23.7065 11.8734 23.3226 11.9399C22.0856 12.1541 20.9342 12.7023 19.9927 13.526C19.7251 13.7596 19.3829 13.8878 19.0289 13.8878C18.6066 13.8878 18.2049 13.7059 17.9268 13.3885C17.6698 13.0952 17.5421 12.7193 17.568 12.3296C17.5943 11.9399 17.7705 11.5838 18.065 11.3268C19.4132 10.1477 21.0599 9.36236 22.8267 9.05701C23.3759 8.96181 23.9364 8.91381 24.4937 8.91381C25.7234 8.91381 26.928 9.14293 28.0737 9.59471C28.6197 9.81011 29.145 10.0743 29.6421 10.3829C30.2422 9.63182 30.9918 9.00053 31.8364 8.53827C32.9053 7.95337 34.1132 7.64398 35.3303 7.64398C35.6738 7.64398 36.0206 7.66859 36.3616 7.71739C36.748 7.77185 37.0911 7.97394 37.3263 8.28615C37.5615 8.59877 37.6609 8.984 37.6055 9.37124C37.5033 10.0876 36.8801 10.6278 36.156 10.6278C36.0868 10.6278 36.0169 10.6229 35.9482 10.6128C35.7438 10.5834 35.536 10.5689 35.3308 10.5689C34.605 10.5689 33.8836 10.7532 33.2455 11.1025C32.7081 11.397 32.2385 11.802 31.8707 12.2864C32.0106 12.4478 32.1451 12.6144 32.2732 12.7834C33.3522 14.2101 34.0162 15.9063 34.194 17.6893C34.2728 18.4916 33.6832 19.208 32.8802 19.2874C32.8321 19.2923 32.7836 19.2947 32.7359 19.2947V19.2939Z" fill="#3DB8FA"/>
</svg>
