<?xml version="1.0" encoding="UTF-8"?> <svg xmlns="http://www.w3.org/2000/svg" width="144.785" height="21.035" viewBox="0 0 144.785 21.035"><defs><style> .cls-1{fill:#6559f3} </style></defs><g id="Group_4908" transform="translate(-12.1 -10.1)"><path id="Path_3792" d="M22.217 30.563a5.659 5.659 0 0 1-2.4.514c-3.43 0-5.43-1.829-5.43-5.487v-6.4H12.1V16.1h2.286v-3.714l3.659-2.286v6h3.887v3.087h-3.887v6.4c0 1.772.629 2.4 1.943 2.4a3.1 3.1 0 0 0 1.429-.343z" class="cls-1"></path><path id="Path_3793" d="M47.8 35.4h-3.654V33a5.481 5.481 0 0 1-4.573 2.629C36.829 35.633 35 34.09 35 31.175V20.6h3.658v9.489c0 1.6.686 2.458 2.115 2.458 1.886 0 3.372-2.286 3.372-6V20.6H47.8z" class="cls-1" transform="translate(-9.81 -4.498)"></path><path id="Path_3794" d="M72.517 30.563a5.659 5.659 0 0 1-2.4.514c-3.43 0-5.43-1.829-5.43-5.487v-6.4H62.4V16.1h2.286v-3.714l3.659-2.286v6h3.887v3.087h-3.887v6.4c0 1.772.629 2.4 1.943 2.4a3.1 3.1 0 0 0 1.429-.343z" class="cls-1" transform="translate(-21.549)"></path><path id="Path_3795" d="M83.5 27.759a7.905 7.905 0 0 1 2-5.487 8.017 8.017 0 0 1 10.975 0 7.56 7.56 0 0 1 2 5.487 7.807 7.807 0 0 1-2 5.487 7.273 7.273 0 0 1-5.487 2.172 7.069 7.069 0 0 1-5.488-2.171 7.807 7.807 0 0 1-2-5.488zm3.83 0a5.626 5.626 0 0 0 .972 3.258 3.4 3.4 0 0 0 5.373 0 5.024 5.024 0 0 0 .972-3.258 5.321 5.321 0 0 0-.972-3.2 3.4 3.4 0 0 0-5.373 0 5.321 5.321 0 0 0-.972 3.2z" class="cls-1" transform="translate(-30.588 -4.284)"></path><path id="Path_3796" d="M119.058 35.233H115.4v-14.8h3.658v2.4a5.263 5.263 0 0 1 4.4-2.629 6.725 6.725 0 0 1 1.772.286l-.686 3.372a2.831 2.831 0 0 0-1.543-.4c-2.344 0-3.944 2-3.944 6.516v5.259z" class="cls-1" transform="translate(-44.254 -4.327)"></path><path id="Path_3797" d="M137.1 20.429h3.658v2.4a5.481 5.481 0 0 1 4.573-2.629c2.744 0 4.573 1.543 4.573 4.458v10.575h-3.658v-9.489c0-1.6-.686-2.458-2.115-2.458-1.886 0-3.372 2.286-3.372 6v5.887H137.1z" transform="translate(-53.55 -4.327)"></path><path id="Path_3798" d="M199.058 35.233H195.4v-14.8h3.658v2.4a5.263 5.263 0 0 1 4.4-2.629 6.726 6.726 0 0 1 1.772.286l-.686 3.372a2.831 2.831 0 0 0-1.543-.4c-2.344 0-3.944 2-3.944 6.516z" transform="translate(-78.526 -4.327)"></path><path id="Path_3799" d="M225.746 17.416V10.1h3.654v20.806h-3.658v-1.543a4.232 4.232 0 0 1-3.6 1.772c-4.344 0-6.745-2.972-6.745-7.659s2.4-7.659 6.745-7.659a4.956 4.956 0 0 1 3.604 1.599zm-6.573 6.059a5.2 5.2 0 0 0 .972 3.315 3.117 3.117 0 0 0 4.916 0 5.267 5.267 0 0 0 .972-3.372 5.2 5.2 0 0 0-.972-3.315 3.117 3.117 0 0 0-4.916 0 5.379 5.379 0 0 0-.972 3.372z" transform="translate(-87.094)"></path><path id="Path_3800" d="M256.189 22.6l-2.172 2a3.07 3.07 0 0 0-2.458-1.315 1.262 1.262 0 0 0-1.372 1.258c0 .629.457 1.086 1.429 1.429l1.086.4 1.258.457c.229.114.572.286 1.086.572a4.958 4.958 0 0 1 1.086.743 3.689 3.689 0 0 1 .915 2.4 4.754 4.754 0 0 1-1.486 3.487 5.085 5.085 0 0 1-3.773 1.429 5.745 5.745 0 0 1-3.658-1.2 6.944 6.944 0 0 1-2.229-2.8l2.915-1.543c.572 1.6 1.6 2.458 2.972 2.458 1.2 0 1.829-.514 1.829-1.6a1.242 1.242 0 0 0-.8-1.143 3.055 3.055 0 0 0-.8-.343c-.514-.229-1.543-.572-2.115-.8-1.886-.8-2.972-1.886-2.972-4a4.021 4.021 0 0 1 1.315-3.029 4.618 4.618 0 0 1 3.43-1.258 5.133 5.133 0 0 1 4.514 2.398z" transform="translate(-100.161 -4.325)"></path><g id="Group_4904" transform="translate(98.468 15.236)"><path id="Path_3810" d="M177.44 34.656a8.075 8.075 0 0 0 1.928-4.291 5.564 5.564 0 0 1-5.721 2.736 4.645 4.645 0 0 1-4.1-4.166v-3.171a4.778 4.778 0 0 0-1.306-2.985l-.187-.187a2.872 2.872 0 0 0-1.8-.622 3.158 3.158 0 0 0-1.057.187L163.2 21.1l.808 1.928a3.009 3.009 0 0 0-.622 1.8 2.911 2.911 0 0 0 1.306 2.425 6.842 6.842 0 0 0-.249 1.928 7.11 7.11 0 0 0 4.6 7.027 10.263 10.263 0 0 0 3.171.56 6.648 6.648 0 0 0 5.226-2.112zm-10.82-9.2a.846.846 0 1 1-.5-1.617.741.741 0 0 1 1.057.56.865.865 0 0 1-.557 1.054z" transform="translate(-163.2 -21.1)"></path><path id="Path_3811" d="M175.82 25.471a1.825 1.825 0 0 1 1.181.435 2.351 2.351 0 0 1 .999 1.679v.249h-2.18a.981.981 0 0 0 .062.249 3.643 3.643 0 0 0 2.118 1.43 5.864 5.864 0 0 0 4.6-.622 3.837 3.837 0 0 0-.062-.56c-.56-3.855-2.86-6.032-7.213-6.032a9.038 9.038 0 0 0-2.923.56 5.118 5.118 0 0 1 1.368 2.8c0 .187.062.435.062.622a2.348 2.348 0 0 1 1.988-.81z" transform="translate(-166.679 -21.554)"></path></g></g></svg> 